<svg xmlns="http://www.w3.org/2000/svg" width="192" height="56" viewBox="0 0 192 56" fill="none">
    <g clip-path="url(#clip0_1_42)">
    <path d="M0 19.6922L19.1296 39.3499V33.2261L5.9592 19.6922L5.9632 19.6906L0 19.6922Z" fill="#8DC63F"/>
    <path d="M0 19.6922L5.9632 19.6906L19.1296 6.16081V0.0362244L0 19.6922Z" fill="#121212"/>
    <path d="M38.2576 36.3053L19.1296 16.6493V22.7739L32.2992 36.3045L32.2944 36.3111L38.2576 36.3053Z" fill="#8DC63F"/>
    <path d="M38.2576 36.3053L32.2944 36.3111L19.1296 49.8375V55.9646L38.2576 36.3053ZM46.8232 36.6413L48.4528 33.6379H48.9488L47.0328 37.0687V39.0386H46.6008V37.0514L44.6984 33.6354H45.2L46.8232 36.6413ZM55.008 36.7829C55.0375 37.3987 54.8381 38.0029 54.4504 38.4728C54.2634 38.6884 54.0319 38.8582 53.7729 38.9699C53.514 39.0816 53.2341 39.1324 52.9536 39.1185C52.6761 39.1321 52.3992 39.0812 52.1435 38.9694C51.8878 38.8576 51.6599 38.6879 51.4768 38.4728C51.0953 37.9998 50.8995 37.397 50.928 36.7829V35.9059C50.9013 35.2903 51.0962 34.6863 51.4752 34.2094C51.6588 33.9954 51.8866 33.8264 52.1418 33.7147C52.397 33.603 52.6733 33.5514 52.9504 33.5638C53.2311 33.5506 53.5112 33.6016 53.7704 33.7133C54.0297 33.8249 54.2616 33.9944 54.4496 34.2094C54.836 34.6821 55.036 35.2866 55.0088 35.9059V36.7838L55.008 36.7829ZM54.5792 35.8861C54.6037 35.3775 54.4507 34.8766 54.148 34.4738C54.0014 34.2964 53.8172 34.1562 53.6095 34.0639C53.4018 33.9717 53.1763 33.9299 52.9504 33.9418C52.7284 33.9301 52.5068 33.9722 52.3034 34.0646C52.1 34.1569 51.9205 34.2971 51.7792 34.4738C51.4848 34.8798 51.3392 35.3796 51.3624 35.8861V36.7731C51.3364 37.2816 51.4845 37.7834 51.7808 38.1912C51.9221 38.3683 52.1019 38.5089 52.3056 38.6016C52.5092 38.6943 52.7312 38.7365 52.9536 38.7248C53.412 38.7495 53.8552 38.5519 54.1512 38.1945C54.4534 37.788 54.6056 37.2843 54.5808 36.7731L54.5792 35.8861ZM61.304 33.6354V37.226C61.3181 37.4838 61.2779 37.7417 61.1863 37.9821C61.0946 38.2224 60.9535 38.4395 60.7728 38.6186C60.3984 38.9606 59.9097 39.1398 59.4096 39.1185C58.9155 39.1402 58.4331 38.9596 58.068 38.6161C57.8892 38.4365 57.7499 38.2194 57.6596 37.9796C57.5693 37.7398 57.5302 37.4828 57.5448 37.226V33.6354H57.9768V37.226C57.9576 37.6378 58.1024 38.0396 58.3808 38.3361C58.6552 38.6104 59.0288 38.7602 59.4128 38.7446C59.8032 38.7611 60.1832 38.6145 60.4672 38.3378C60.6071 38.1929 60.7159 38.0195 60.7869 37.8288C60.8578 37.638 60.8893 37.4341 60.8792 37.2301V33.6354H61.304ZM64.4704 36.6001V39.0386H64.0368V33.6436H65.7888C66.352 33.6436 66.784 33.7696 67.0848 34.0241C67.3968 34.3008 67.5632 34.7126 67.5368 35.1342C67.54 35.4109 67.4544 35.6819 67.2952 35.9051C67.124 36.1392 66.886 36.3122 66.6144 36.4C66.8944 36.4544 67.1472 36.6141 67.3176 36.8505C67.468 37.0918 67.5456 37.3742 67.5368 37.6592V38.1673C67.536 38.3205 67.5536 38.472 67.5936 38.6219C67.6272 38.7454 67.6944 38.8582 67.7856 38.948V39.0378H67.3456C67.248 38.9344 67.1813 38.8044 67.1536 38.6631C67.1162 38.4984 67.0974 38.3298 67.0976 38.1607V37.6674C67.1054 37.5206 67.0815 37.3738 67.0275 37.2377C66.9736 37.1015 66.8909 36.9794 66.7856 36.8801C66.5406 36.6746 66.229 36.5722 65.9136 36.5935L64.4704 36.6001ZM64.4704 36.2213H65.7376C66.212 36.2213 66.5592 36.1258 66.7776 35.9273C66.9952 35.7272 67.1168 35.4389 67.1056 35.1384C67.1158 34.9843 67.0921 34.8299 67.0363 34.6866C66.9805 34.5433 66.894 34.4148 66.7832 34.3107C66.4963 34.095 66.1437 33.9927 65.7896 34.0225H64.4696L64.4704 36.2213ZM76.6008 37.7275C76.6021 37.5958 76.5739 37.4656 76.5184 37.3469C76.4629 37.2282 76.3816 37.1243 76.2808 37.0432C75.9508 36.8066 75.5811 36.6348 75.1904 36.5367C74.7312 36.4254 74.2967 36.225 73.9104 35.9462C73.7677 35.8334 73.6533 35.6871 73.5767 35.5195C73.5002 35.3519 73.4637 35.1678 73.4704 34.9827C73.4676 34.785 73.5105 34.5894 73.5956 34.4121C73.6808 34.2348 73.8057 34.0809 73.96 33.9632C74.3223 33.69 74.7641 33.5517 75.2128 33.5712C75.6826 33.5487 76.1433 33.7093 76.5032 34.0208C76.8224 34.3107 76.9976 34.7324 76.9768 35.168V35.1911H76.5648C76.5681 35.0231 76.5354 34.8565 76.469 34.7031C76.4026 34.5496 76.3042 34.4131 76.1808 34.3033C75.9126 34.0619 75.5648 33.9352 75.2088 33.9492C74.8655 33.9306 74.5267 34.0364 74.2512 34.2481C74.1419 34.3341 74.0535 34.4451 73.9929 34.5723C73.9324 34.6995 73.9014 34.8394 73.9024 34.9811C73.8968 35.2462 74.0152 35.4974 74.22 35.6588C74.5581 35.8958 74.9368 36.0646 75.336 36.1562C75.7926 36.2728 76.2227 36.4798 76.6024 36.7656C76.8888 36.9987 77.0512 37.3569 77.0392 37.7341C77.0456 38.1376 76.8552 38.5206 76.5296 38.7495C76.1513 39.0192 75.6992 39.1574 75.2392 39.144C74.7588 39.1541 74.287 39.0124 73.8872 38.738C73.7007 38.6098 73.5505 38.4329 73.452 38.2254C73.3535 38.018 73.3101 37.7874 73.3264 37.5571V37.5324H73.7256C73.7112 37.9029 73.8896 38.2521 74.1936 38.4498C74.5072 38.6556 74.8704 38.7627 75.2416 38.7545C75.5896 38.7734 75.9352 38.6721 76.224 38.4728C76.4632 38.3032 76.6056 38.0256 76.6008 37.7275ZM83.2768 33.6354V37.226C83.2907 37.4837 83.2506 37.7415 83.1591 37.9818C83.0675 38.2221 82.9268 38.4393 82.7464 38.6186C82.3704 38.9604 81.8824 39.1399 81.3816 39.1185C80.8877 39.14 80.4057 38.9594 80.0408 38.6161C79.8623 38.4362 79.7232 38.2191 79.6328 37.9794C79.5424 37.7396 79.5029 37.4828 79.5168 37.226V33.6354H79.9488V37.226C79.9288 37.6378 80.0768 38.0396 80.3544 38.3361C80.6272 38.6104 81.0008 38.7602 81.3848 38.7446C81.7744 38.7611 82.1552 38.6145 82.4384 38.3378C82.5783 38.1929 82.6871 38.0195 82.7581 37.8288C82.829 37.638 82.8605 37.4341 82.8504 37.2301V33.6354H83.2768ZM89.6464 37.3536V37.3767C89.6606 37.6129 89.6232 37.8494 89.5371 38.0688C89.451 38.2883 89.3184 38.4851 89.1488 38.6449C88.7679 38.9739 88.2807 39.1435 87.784 39.1201C87.5153 39.1295 87.248 39.0756 87.0025 38.9624C86.7571 38.8492 86.5401 38.6798 86.368 38.4671C85.9951 37.9911 85.8037 37.3914 85.8296 36.7805V35.9001C85.8046 35.2901 85.996 34.6915 86.368 34.216C86.5397 34.0025 86.7565 33.8324 87.002 33.7186C87.2475 33.6048 87.515 33.5505 87.784 33.5596C88.281 33.5336 88.7697 33.6992 89.1544 34.0241C89.5024 34.3478 89.6864 34.8164 89.6512 35.2973V35.3187H89.2384C89.25 35.1311 89.222 34.943 89.1563 34.7676C89.0905 34.5922 88.9886 34.4335 88.8576 34.3025C88.5591 34.0446 88.1763 33.9136 87.7872 33.936C87.5733 33.9301 87.3611 33.9767 87.1682 34.0719C86.9752 34.1671 86.8071 34.3083 86.6776 34.4836C86.3876 34.8893 86.24 35.3844 86.2592 35.8878V36.7747C86.2366 37.2813 86.3837 37.7805 86.676 38.1887C86.936 38.5445 87.3488 38.7487 87.784 38.7364C88.172 38.7611 88.5552 38.6326 88.8544 38.3822C89.124 38.1121 89.2648 37.7316 89.2368 37.3471L89.6464 37.3536ZM95.8704 37.3536V37.3767C95.8844 37.614 95.8462 37.8515 95.7587 38.0715C95.6711 38.2916 95.5365 38.4884 95.3648 38.6474C94.9837 38.9747 94.4974 39.1433 94.0016 39.1201C93.7329 39.1306 93.4655 39.0774 93.22 38.9646C92.9745 38.8518 92.7574 38.6824 92.5856 38.4695C92.2124 37.9937 92.0207 37.394 92.0464 36.7829V35.9059C92.0201 35.2948 92.2119 34.6949 92.5856 34.2193C92.7571 34.0056 92.9739 33.8354 93.2194 33.7218C93.465 33.6081 93.7326 33.554 94.0016 33.5638C94.4981 33.5372 94.9862 33.7032 95.3696 34.0291C95.7216 34.3527 95.9048 34.8213 95.8704 35.3039V35.3253H95.4656C95.4771 35.1373 95.4489 34.9489 95.3829 34.7732C95.3168 34.5975 95.2146 34.4386 95.0832 34.3074C94.7844 34.0493 94.4015 33.9177 94.012 33.9393C93.7983 33.9333 93.5863 33.9801 93.3937 34.0757C93.2011 34.1712 93.0334 34.3128 92.9048 34.4886C92.6145 34.8955 92.4668 35.3916 92.4856 35.896V36.7838C92.464 37.2894 92.612 37.7885 92.9048 38.1961C93.164 38.5544 93.5768 38.7586 94.012 38.7454C94.4008 38.7718 94.7832 38.6425 95.0832 38.3896C95.352 38.1212 95.4928 37.7391 95.4656 37.3545L95.8704 37.3536ZM101.262 36.4231H98.9008V38.6672H101.63V39.0386H98.4704V33.6354H101.611V34.0159H98.9008V36.0442H101.262V36.4231ZM106.992 37.7275C106.994 37.5959 106.966 37.4656 106.911 37.3469C106.856 37.2281 106.774 37.1242 106.674 37.0432C106.343 36.8071 105.973 36.6355 105.582 36.5367C105.123 36.4255 104.688 36.2251 104.302 35.9462C104.159 35.8333 104.045 35.687 103.968 35.5194C103.892 35.3518 103.855 35.1678 103.862 34.9827C103.859 34.7849 103.903 34.5893 103.988 34.4121C104.073 34.2348 104.198 34.081 104.353 33.9632C104.713 33.6906 105.155 33.5514 105.604 33.5712C106.074 33.5485 106.536 33.709 106.896 34.0208C107.214 34.3107 107.389 34.7324 107.366 35.168V35.1911H106.963C106.967 35.0234 106.935 34.857 106.869 34.7036C106.803 34.5502 106.705 34.4135 106.582 34.3033C106.313 34.0618 105.965 33.9352 105.608 33.9492C105.265 33.9306 104.926 34.0363 104.651 34.2481C104.43 34.4227 104.299 34.6936 104.303 34.9811C104.298 35.2462 104.415 35.4974 104.621 35.6588C104.958 35.8952 105.336 36.064 105.734 36.1562C106.193 36.2724 106.622 36.4799 107.002 36.7656C107.29 36.9987 107.45 37.3569 107.438 37.7341C107.446 38.1376 107.254 38.5206 106.927 38.7495C106.55 39.0199 106.099 39.1582 105.639 39.144C105.159 39.1544 104.686 39.0127 104.286 38.738C104.1 38.6094 103.95 38.4325 103.851 38.2252C103.753 38.0179 103.709 37.7874 103.724 37.5571V37.5324H104.125C104.104 37.9079 104.278 38.2653 104.583 38.4679C104.897 38.6729 105.26 38.7792 105.631 38.7726C105.98 38.7874 106.324 38.6886 106.617 38.4893C106.86 38.3188 107.002 38.0298 106.992 37.7275ZM112.936 37.7275C112.938 37.5959 112.911 37.4656 112.856 37.3468C112.801 37.228 112.719 37.1241 112.618 37.0432C112.288 36.8069 111.918 36.6352 111.527 36.5367C111.068 36.426 110.634 36.2256 110.248 35.9462C110.105 35.8336 109.99 35.6873 109.914 35.5197C109.837 35.3521 109.8 35.1679 109.806 34.9827C109.804 34.7848 109.847 34.5892 109.933 34.4119C110.018 34.2347 110.143 34.0808 110.298 33.9632C110.658 33.6906 111.1 33.5514 111.55 33.5712C112.019 33.549 112.479 33.7095 112.839 34.0208C113.162 34.3107 113.333 34.7324 113.313 35.168V35.1911H112.907C112.911 35.0232 112.878 34.8567 112.812 34.7032C112.746 34.5498 112.648 34.4132 112.525 34.3033C112.256 34.0618 111.907 33.9352 111.55 33.9492C111.207 33.9308 110.869 34.0365 110.594 34.2481C110.485 34.3344 110.396 34.4454 110.336 34.5726C110.276 34.6997 110.245 34.8395 110.246 34.9811C110.241 35.2462 110.358 35.4974 110.563 35.6588C110.901 35.8958 111.28 36.0646 111.679 36.1562C112.135 36.2724 112.566 36.4799 112.944 36.7656C113.232 36.9987 113.394 37.3569 113.381 37.7341C113.389 38.1376 113.197 38.5206 112.873 38.7495C112.494 39.0194 112.041 39.1577 111.581 39.144C111.101 39.1535 110.629 39.0118 110.229 38.738C110.042 38.6099 109.892 38.4331 109.793 38.2256C109.695 38.0181 109.651 37.7874 109.668 37.5571V37.5324H110.076C110.054 37.9079 110.228 38.2653 110.537 38.4679C110.847 38.6729 111.214 38.7792 111.584 38.7726C111.933 38.7879 112.277 38.6887 112.568 38.4893C112.687 38.4046 112.783 38.2904 112.847 38.1572C112.912 38.024 112.942 37.8762 112.936 37.7275ZM119.74 39.0378H119.306V33.6354H119.74V39.0378ZM125.642 37.7275C125.644 37.5956 125.616 37.4651 125.56 37.3463C125.504 37.2275 125.422 37.1238 125.321 37.0432C124.991 36.8072 124.623 36.6355 124.233 36.5367C123.773 36.4255 123.339 36.2251 122.952 35.9462C122.809 35.8332 122.695 35.6869 122.618 35.5194C122.541 35.3518 122.504 35.1679 122.51 34.9827C122.508 34.7847 122.552 34.5892 122.638 34.412C122.724 34.2348 122.849 34.081 123.004 33.9632C123.364 33.6906 123.807 33.5514 124.256 33.5712C124.726 33.5488 125.186 33.7093 125.546 34.0208C125.866 34.3107 126.039 34.7324 126.021 35.168V35.1911H125.6C125.603 35.0231 125.571 34.8565 125.504 34.7031C125.438 34.5496 125.339 34.4131 125.216 34.3033C124.948 34.0617 124.6 33.935 124.243 33.9492C123.9 33.9308 123.562 34.0365 123.286 34.2481C123.177 34.3342 123.089 34.4452 123.028 34.5724C122.968 34.6996 122.937 34.8395 122.938 34.9811C122.934 35.2462 123.05 35.4974 123.256 35.6588C123.592 35.8952 123.971 36.064 124.37 36.1562C124.828 36.2724 125.258 36.4799 125.636 36.7656C125.924 36.9987 126.084 37.3569 126.074 37.7341C126.081 38.1376 125.89 38.5206 125.566 38.7495C125.186 39.0195 124.733 39.1577 124.272 39.144C123.792 39.1537 123.321 39.012 122.922 38.738C122.735 38.6098 122.584 38.433 122.486 38.2256C122.387 38.0182 122.343 37.7875 122.359 37.5571V37.5324H122.759C122.738 37.9079 122.911 38.2653 123.217 38.4679C123.53 38.6728 123.894 38.7787 124.265 38.7726C124.614 38.7879 124.958 38.6887 125.249 38.4893C125.499 38.3221 125.649 38.0339 125.642 37.7275ZM135.755 36.7829C135.784 37.3988 135.585 38.003 135.197 38.4728C135.01 38.6887 134.779 38.8587 134.52 38.9705C134.261 39.0822 133.981 39.1328 133.7 39.1185C133.423 39.1321 133.146 39.0812 132.891 38.9694C132.635 38.8576 132.408 38.6878 132.225 38.4728C131.843 38 131.646 37.3972 131.674 36.7829V35.9059C131.648 35.2901 131.844 34.6861 132.223 34.2094C132.406 33.9954 132.634 33.8263 132.889 33.7146C133.144 33.6028 133.42 33.5513 133.697 33.5638C133.978 33.5507 134.258 33.6018 134.517 33.7134C134.776 33.8251 135.008 33.9945 135.196 34.2094C135.582 34.6821 135.782 35.2866 135.755 35.9059V36.7829ZM135.328 35.8861C135.353 35.3776 135.2 34.8767 134.898 34.4738C134.751 34.2965 134.567 34.1564 134.359 34.0641C134.151 33.9719 133.926 33.93 133.7 33.9418C133.478 33.9297 133.256 33.9715 133.052 34.0639C132.849 34.1563 132.669 34.2967 132.528 34.4738C132.236 34.8814 132.089 35.3801 132.112 35.8861V36.7731C132.089 37.2836 132.237 37.7844 132.534 38.1912C132.82 38.5494 133.254 38.7495 133.708 38.7248C133.934 38.7364 134.159 38.6946 134.367 38.6027C134.574 38.5108 134.759 38.3711 134.906 38.1945C135.207 37.7873 135.359 37.2841 135.335 36.7731L135.328 35.8861ZM142.052 33.6354V37.226C142.066 37.4837 142.025 37.7414 141.934 37.9816C141.842 38.2219 141.702 38.4391 141.522 38.6186C141.147 38.9605 140.658 39.1397 140.158 39.1185C139.664 39.14 139.181 38.9594 138.816 38.6161C138.638 38.4362 138.499 38.219 138.408 37.9793C138.318 37.7395 138.279 37.4827 138.293 37.226V33.6354H138.726V37.226C138.702 37.6378 138.852 38.0396 139.13 38.3361C139.403 38.6104 139.778 38.7602 140.158 38.7446C140.352 38.7526 140.545 38.7207 140.727 38.6508C140.908 38.581 141.074 38.4745 141.215 38.3378C141.497 38.0454 141.647 37.6419 141.627 37.2301V33.6354H142.052ZM145.222 36.6001V39.0386H144.79V33.6436H146.542C147.102 33.6436 147.538 33.7696 147.838 34.0241C148.15 34.3008 148.317 34.7109 148.29 35.1342C148.294 35.4109 148.207 35.6819 148.049 35.9051C147.878 36.1392 147.64 36.3123 147.369 36.4C147.649 36.4544 147.901 36.6141 148.073 36.8505C148.222 37.0926 148.297 37.3767 148.286 37.6633V38.1698C148.285 38.3238 148.306 38.4769 148.344 38.626C148.378 38.7513 148.445 38.8643 148.538 38.9521V39.0378H148.098C147.999 38.9348 147.933 38.8046 147.906 38.6631C147.868 38.4985 147.848 38.3299 147.848 38.1607V37.6674C147.856 37.5206 147.832 37.3738 147.778 37.2377C147.724 37.1015 147.641 36.9794 147.536 36.8801C147.291 36.6743 146.979 36.5719 146.663 36.5935L145.223 36.6001H145.222ZM145.222 36.2213H146.485C146.962 36.2213 147.31 36.1258 147.526 35.9273C147.746 35.7272 147.866 35.4389 147.857 35.1384C147.866 34.9847 147.841 34.8309 147.785 34.6884C147.728 34.5458 147.641 34.4182 147.53 34.3148C147.243 34.1019 146.891 33.9999 146.538 34.0266H145.222V36.2213ZM156.912 38.3971H156.936L158.893 33.6379H159.421V39.0378H158.987V34.5059H158.965L157.078 39.0369H156.766L154.838 34.3807H154.817V39.0369H154.385V33.6346H154.958L156.912 38.3971ZM162.79 39.0378H162.356V33.6354H162.79V39.0378ZM168.69 37.7275C168.692 37.5956 168.664 37.4651 168.608 37.3463C168.552 37.2275 168.47 37.1238 168.369 37.0432C168.04 36.8067 167.671 36.635 167.281 36.5367C166.821 36.4255 166.387 36.2251 166 35.9462C165.857 35.8333 165.743 35.6869 165.667 35.5193C165.59 35.3517 165.554 35.1678 165.56 34.9827C165.558 34.7852 165.601 34.59 165.686 34.4129C165.77 34.2358 165.895 34.0817 166.048 33.9632C166.411 33.6902 166.853 33.552 167.302 33.5712C167.772 33.5487 168.233 33.7092 168.594 34.0208C168.912 34.3107 169.087 34.7324 169.066 35.168V35.1911H168.662C168.665 35.0234 168.633 34.857 168.567 34.7036C168.501 34.5502 168.404 34.4135 168.281 34.3033C168.012 34.0618 167.663 33.9352 167.306 33.9492C166.963 33.9306 166.625 34.0363 166.35 34.2481C166.127 34.4227 165.998 34.6936 166 34.9811C165.994 35.2462 166.113 35.4974 166.318 35.6588C166.656 35.8949 167.034 36.0637 167.432 36.1562C167.89 36.2724 168.32 36.4799 168.7 36.7656C168.986 36.9987 169.15 37.3569 169.137 37.7341C169.145 38.1376 168.952 38.5206 168.627 38.7495C168.249 39.0196 167.797 39.1579 167.337 39.144C166.856 39.1543 166.385 39.0126 165.985 38.738C165.799 38.6094 165.648 38.4325 165.55 38.2252C165.451 38.0179 165.407 37.7874 165.422 37.5571V37.5324H165.822C165.801 37.9079 165.974 38.2653 166.282 38.4679C166.594 38.6729 166.958 38.7792 167.33 38.7726C167.678 38.7874 168.022 38.6886 168.312 38.4893C168.555 38.3188 168.702 38.0298 168.69 37.7275ZM174.634 37.7275C174.636 37.5958 174.608 37.4655 174.553 37.3468C174.498 37.228 174.416 37.1241 174.315 37.0432C173.985 36.8064 173.615 36.6346 173.224 36.5367C172.765 36.4251 172.33 36.2248 171.944 35.9462C171.802 35.8331 171.688 35.6867 171.611 35.5191C171.535 35.3516 171.498 35.1677 171.504 34.9827C171.502 34.785 171.545 34.5894 171.63 34.4122C171.715 34.235 171.84 34.0811 171.994 33.9632C172.357 33.6897 172.798 33.5515 173.247 33.5712C173.717 33.5487 174.178 33.7093 174.538 34.0208C174.857 34.3107 175.03 34.7324 175.011 35.168V35.1911H174.6C174.603 35.0231 174.571 34.8565 174.504 34.7031C174.438 34.5496 174.339 34.4131 174.216 34.3033C173.948 34.0617 173.6 33.935 173.243 33.9492C172.9 33.9304 172.561 34.0362 172.286 34.2481C172.065 34.4227 171.934 34.6936 171.938 34.9811C171.931 35.2462 172.05 35.4974 172.254 35.6588C172.592 35.8958 172.971 36.0646 173.37 36.1562C173.827 36.2723 174.257 36.4793 174.636 36.7656C174.924 36.9987 175.084 37.3569 175.074 37.7341C175.081 38.1376 174.89 38.5206 174.564 38.7495C174.186 39.0194 173.733 39.1577 173.273 39.144C172.792 39.1542 172.321 39.0125 171.921 38.738C171.735 38.6094 171.585 38.4325 171.486 38.2251C171.387 38.0178 171.344 37.7874 171.359 37.5571V37.5324H171.759C171.739 37.9079 171.914 38.2653 172.218 38.4679C172.53 38.6729 172.895 38.7792 173.266 38.7726C173.615 38.7874 173.959 38.6886 174.25 38.4893C174.495 38.3205 174.644 38.0322 174.634 37.7275ZM178.16 39.0378H177.722V33.6354H178.155L178.16 39.0378ZM184.952 36.7829C184.98 37.3984 184.78 38.0019 184.394 38.4728C184.207 38.6882 183.976 38.858 183.717 38.9697C183.458 39.0813 183.178 39.1322 182.898 39.1185C182.62 39.1322 182.343 39.0813 182.087 38.9695C181.831 38.8577 181.603 38.688 181.419 38.4728C181.039 37.9994 180.843 37.3968 180.871 36.7829V35.9059C180.843 35.2903 181.038 34.6859 181.418 34.2094C181.602 33.9954 181.83 33.8264 182.085 33.7146C182.341 33.6029 182.617 33.5514 182.894 33.5638C183.175 33.5505 183.454 33.6016 183.713 33.7133C183.972 33.8249 184.203 33.9944 184.39 34.2094C184.778 34.6821 184.979 35.2866 184.953 35.9059V36.7838L184.952 36.7829ZM184.523 35.8861C184.547 35.3774 184.394 34.8765 184.091 34.4738C183.945 34.2966 183.761 34.1565 183.553 34.0642C183.346 33.972 183.12 33.9301 182.894 33.9418C182.672 33.9298 182.45 33.9717 182.247 34.0641C182.043 34.1565 181.863 34.2968 181.722 34.4738C181.426 34.8798 181.282 35.3796 181.305 35.8861V36.7731C181.279 37.2818 181.428 37.7836 181.725 38.1912C182.01 38.5494 182.445 38.7495 182.898 38.7248C183.354 38.7495 183.799 38.5519 184.095 38.1945C184.397 37.7876 184.549 37.2842 184.525 36.7731L184.523 35.8861ZM191.428 39.0378H190.994L188.008 34.4095H187.989V39.0378H187.554V33.6354H187.986L190.975 38.2496H190.996V33.6354H191.43V39.0378H191.428ZM51.108 25.0164C51.1142 24.8093 51.076 24.6034 50.9963 24.4133C50.9165 24.2232 50.797 24.0534 50.6464 23.9161C50.3368 23.6336 49.7904 23.3784 49.0056 23.1502C47.88 22.8307 47.012 22.4115 46.4016 21.8935C46.1069 21.6509 45.8709 21.3413 45.7121 20.9889C45.5533 20.6365 45.476 20.251 45.4864 19.8627C45.4799 19.4502 45.5675 19.0419 45.7421 18.6706C45.9168 18.2993 46.1736 17.9754 46.492 17.7248C47.1616 17.1624 48.0232 16.8832 49.076 16.8832C50.204 16.8832 51.1096 17.1936 51.7848 17.8171C52.1082 18.099 52.3645 18.4534 52.5343 18.8531C52.704 19.2528 52.7826 19.6871 52.764 20.1229L52.7504 20.1666H51.0704C51.0815 19.9142 51.0383 19.6624 50.9438 19.4292C50.8494 19.196 50.706 18.9872 50.524 18.8176C50.1147 18.4685 49.5934 18.2893 49.0624 18.3153C48.4736 18.3153 48.0208 18.4586 47.7024 18.7435C47.5472 18.8789 47.4235 19.0484 47.3405 19.2395C47.2574 19.4307 47.217 19.6386 47.2224 19.8479C47.2192 20.2588 47.416 20.6401 47.7456 20.8699C48.0952 21.1334 48.6736 21.3871 49.4832 21.6325C50.5776 21.9479 51.4128 22.3761 51.9872 22.9196C52.2685 23.1823 52.4912 23.5046 52.64 23.8642C52.7889 24.2239 52.8604 24.6124 52.8496 25.0032C52.8611 25.417 52.7743 25.8275 52.5967 26.1989C52.4191 26.5703 52.156 26.8915 51.8304 27.1345C51.1504 27.6591 50.256 27.9218 49.148 27.9218C48.1556 27.9454 47.182 27.6405 46.3704 27.0521C45.5816 26.4724 45.1976 25.6554 45.2192 24.5964L45.2336 24.5511H46.9136C46.9136 25.1934 47.1296 25.6793 47.5616 26.0071C48.0234 26.3444 48.5797 26.5168 49.1456 26.4979C49.7624 26.4979 50.2408 26.3678 50.5848 26.1051C50.924 25.8522 51.1192 25.4454 51.108 25.0164ZM59.872 25.2659H56.1704L55.3664 27.776H53.5656L57.2056 17.0372H58.8664L62.4664 27.776H60.664L59.872 25.2659ZM56.648 23.7704H59.396L58.0544 19.5374H58.012L56.648 23.7704ZM65.4456 27.776H63.704V17.0372H65.4472L65.4456 27.776ZM75.3248 26.3225C74.9611 26.804 74.4895 27.1877 73.9504 27.4408C73.3216 27.7661 72.508 27.9292 71.5128 27.9292C70.2776 27.9292 69.2624 27.5191 68.4648 26.6996C67.668 25.8811 67.2688 24.8236 67.2688 23.5258V21.2849C67.2688 19.9862 67.6528 18.9288 68.42 18.1094C69.1864 17.2908 70.1784 16.8824 71.396 16.8824C72.6136 16.8824 73.5608 17.1969 74.2408 17.8269C74.5749 18.1345 74.8374 18.5156 75.0088 18.9418C75.1803 19.3681 75.2563 19.8286 75.2312 20.2893L75.2016 20.3305H73.552C73.5634 20.062 73.5206 19.7939 73.4263 19.5433C73.332 19.2927 73.1882 19.065 73.004 18.8745C72.6376 18.5055 72.1128 18.3211 71.428 18.3211C71.0941 18.3101 70.7622 18.3793 70.4587 18.523C70.1552 18.6668 69.8883 18.8813 69.6792 19.1495C69.2217 19.752 68.9864 20.5019 69.0152 21.266V23.5274C68.9849 24.3027 69.2314 25.0626 69.708 25.6636C69.9272 25.9354 70.2039 26.1519 70.5168 26.2968C70.8297 26.4417 71.1707 26.511 71.5136 26.4995C71.9642 26.5176 72.4141 26.4512 72.8416 26.3035C73.12 26.2055 73.3736 26.0425 73.5808 25.83V23.6081H71.392V22.2658H75.3256L75.3248 26.3225ZM85.4624 23.3701C85.4624 24.6828 85.06 25.7699 84.2592 26.6346C83.4552 27.4976 82.416 27.9308 81.1424 27.9275C79.8872 27.9275 78.8664 27.4944 78.076 26.6305C77.2864 25.7641 76.8968 24.6771 76.9032 23.3685V21.4365C76.9032 20.1238 77.2952 19.0375 78.0776 18.1794C78.8584 17.3188 79.8816 16.8865 81.1424 16.8799C82.4208 16.8799 83.4608 17.3131 84.2648 18.1811C84.6647 18.6154 84.9771 19.127 85.1837 19.6863C85.3904 20.2457 85.4873 20.8416 85.4688 21.4398L85.4624 23.3701ZM83.7144 21.4249C83.7457 20.6281 83.4995 19.846 83.02 19.2195C82.7914 18.9384 82.5034 18.7149 82.1779 18.566C81.8525 18.4171 81.4983 18.3468 81.1424 18.3606C80.7943 18.3458 80.4478 18.4164 80.1314 18.5664C79.815 18.7165 79.5377 18.9417 79.3224 19.2236C78.86 19.8565 78.6228 20.6336 78.6504 21.4249V23.3701C78.6504 24.276 78.8744 25.0172 79.3184 25.5928C79.5331 25.8768 79.8107 26.1039 80.128 26.255C80.4453 26.4062 80.7931 26.477 81.1424 26.4616C81.5009 26.4776 81.8582 26.4081 82.1863 26.2583C82.5144 26.1086 82.8044 25.8828 83.0336 25.5986C83.4952 25.0221 83.7272 24.2785 83.7248 23.3685L83.7144 21.4249ZM95.2664 27.776H93.5232L88.8944 20.0381L88.852 20.0529V27.776H87.1072V17.0372H88.8512L93.4816 24.7751L93.5232 24.7611V17.038H95.2672L95.2664 27.776Z" fill="#121212"/>
    <path d="M108.01 18.4742H104.779V27.7776H103.035V18.4742H99.8536V17.0364H108.009V18.4742H108.01ZM114.968 22.9435H110.877V26.3464H115.698V27.776H109.132V17.0372H115.649V18.4759H110.877V21.5131H114.968V22.9435ZM124.702 24.2686L124.716 24.3139C124.737 25.3952 124.396 26.2698 123.691 26.9368C122.986 27.6039 122.038 27.9358 120.842 27.9349C119.624 27.9349 118.641 27.5133 117.884 26.6684C117.128 25.8242 116.75 24.7471 116.75 23.4352V21.3871C116.75 20.0744 117.124 18.9964 117.87 18.1539C118.618 17.3114 119.591 16.8856 120.793 16.8799C122.022 16.8799 122.99 17.2027 123.697 17.8484C124.402 18.4924 124.746 19.376 124.726 20.4952L124.711 20.5413H123.023C123.023 19.8224 122.831 19.2731 122.446 18.8934C122.065 18.5113 121.51 18.3227 120.785 18.3227C120.456 18.312 120.131 18.3855 119.837 18.5366C119.543 18.6877 119.29 18.9116 119.101 19.1882C118.669 19.828 118.45 20.5952 118.479 21.3739V23.4327C118.449 24.2175 118.671 24.9925 119.111 25.6324C119.307 25.9122 119.567 26.1377 119.868 26.2887C120.169 26.4397 120.502 26.5116 120.837 26.4979C121.549 26.4979 122.091 26.3068 122.461 25.9231C122.833 25.5401 123.015 24.9867 123.015 24.2645L124.702 24.2686ZM134.352 27.776H132.607V23.1955H127.937V27.776H126.193V17.0372H127.937V21.7642H132.607V17.0372H134.351L134.352 27.776ZM144.502 27.776H142.758L138.13 20.0381L138.086 20.0529V27.776H136.342V17.0372H138.086L142.717 24.7751L142.758 24.7611V17.038H144.502V27.776ZM154.704 23.3701C154.704 24.6828 154.302 25.7699 153.499 26.6346C152.698 27.4976 151.658 27.9308 150.378 27.9275C149.127 27.9275 148.11 27.4976 147.325 26.6346C146.542 25.7732 146.148 24.6845 146.148 23.3701V21.4381C146.148 20.1254 146.536 19.0392 147.319 18.1802C148.101 17.3205 149.121 16.8873 150.374 16.8799C151.652 16.8799 152.693 17.3147 153.495 18.1811C153.895 18.6151 154.208 19.1264 154.415 19.6854C154.622 20.2444 154.719 20.8402 154.701 21.4381L154.704 23.3701ZM152.956 21.4249C152.989 20.6278 152.743 19.845 152.262 19.2195C152.033 18.937 151.744 18.7125 151.417 18.5635C151.09 18.4146 150.735 18.3451 150.378 18.3606C150.029 18.3456 149.682 18.416 149.365 18.566C149.049 18.7161 148.771 18.9415 148.555 19.2236C148.095 19.8592 147.862 20.6381 147.894 21.4299V23.3759C147.894 24.2818 148.116 25.0221 148.56 25.5994C148.775 25.8818 149.051 26.1076 149.367 26.2582C149.683 26.4089 150.03 26.48 150.378 26.4658C150.736 26.4817 151.093 26.4122 151.42 26.2628C151.748 26.1134 152.038 25.8881 152.267 25.6044C152.73 25.0279 152.959 24.2842 152.959 23.3742L152.956 21.4249ZM158.094 26.3464H162.99V27.776H156.349V17.0372H158.093L158.094 26.3464ZM172.293 23.3701C172.293 24.6828 171.89 25.7699 171.09 26.6346C170.286 27.4976 169.245 27.9308 167.964 27.9275C166.714 27.9275 165.698 27.4976 164.913 26.6346C164.129 25.7732 163.734 24.6845 163.732 23.3701V21.4381C163.732 20.1254 164.124 19.0392 164.908 18.1802C165.686 17.3205 166.706 16.8873 167.962 16.8799C169.238 16.8799 170.278 17.3147 171.083 18.1811C171.483 18.6152 171.795 19.1265 172.002 19.6855C172.209 20.2446 172.306 20.8403 172.287 21.4381L172.293 23.3701ZM170.547 21.4249C170.578 20.6279 170.331 19.8458 169.851 19.2195C169.622 18.9366 169.333 18.7118 169.006 18.5628C168.679 18.4138 168.323 18.3446 167.966 18.3606C167.617 18.3457 167.271 18.4162 166.954 18.5662C166.638 18.7163 166.36 18.9416 166.145 19.2236C165.685 19.8593 165.451 20.638 165.481 21.4299V23.3759C165.481 24.2818 165.706 25.0221 166.149 25.5994C166.363 25.8816 166.639 26.1074 166.954 26.258C167.269 26.4087 167.615 26.4799 167.962 26.4658C168.323 26.4839 168.683 26.4152 169.014 26.2651C169.345 26.115 169.637 25.8876 169.867 25.6011C170.329 25.0246 170.561 24.2809 170.558 23.3709L170.547 21.4249ZM181.682 26.3225C181.318 26.8047 180.846 27.1886 180.306 27.4408C179.679 27.7661 178.866 27.9308 177.87 27.9308C176.634 27.9308 175.622 27.5199 174.825 26.7013C174.028 25.8819 173.627 24.8245 173.627 23.5274V21.2833C173.627 19.9846 174.013 18.9272 174.778 18.1078C175.543 17.2892 176.535 16.8791 177.748 16.8791C178.964 16.8791 179.91 17.1936 180.59 17.8228C180.925 18.1302 181.187 18.5112 181.359 18.9375C181.53 19.3639 181.606 19.8245 181.581 20.2852L181.558 20.3313H179.902C179.913 20.0626 179.871 19.7942 179.777 19.5433C179.683 19.2923 179.539 19.0643 179.354 18.8736C178.986 18.5039 178.462 18.3194 177.778 18.3194C177.446 18.3096 177.115 18.3795 176.813 18.5234C176.511 18.6673 176.246 18.8813 176.038 19.1487C175.579 19.7507 175.343 20.5008 175.372 21.2652V23.5258C175.342 24.3009 175.589 25.0606 176.066 25.6612C176.285 25.9327 176.562 26.1491 176.875 26.294C177.188 26.4388 177.529 26.5083 177.872 26.4971C178.323 26.5143 178.773 26.4479 179.201 26.3011C179.477 26.2022 179.733 26.04 179.938 25.8251V23.6073H177.749V22.2649H181.683V26.3225H181.682ZM187.162 22.2584L189.679 17.0372H191.623L187.998 24.0232V27.7768H186.262V23.9104L182.702 17.0396H184.649L187.162 22.2584Z" fill="#8DC63F"/>
    </g>
    <defs>
    <clipPath id="clip0_1_42">
    <rect width="192" height="56" fill="white"/>
    </clipPath>
    </defs>
    </svg>